<svg width="28" height="28" viewBox="0 0 28 28" fill="none" xmlns="http://www.w3.org/2000/svg">
<path d="M28 13.6369C28 11.7821 25.6771 10.0242 22.1158 8.93414C22.9376 5.3043 22.5724 2.4164 20.9629 1.49182C20.5919 1.27494 20.1582 1.17221 19.6845 1.17221V2.44494C19.947 2.44494 20.1582 2.4963 20.3351 2.59333C21.1113 3.0385 21.448 4.73356 21.1855 6.91375C21.1227 7.45024 21.02 8.01526 20.8944 8.5917C19.7758 8.31775 18.5544 8.10658 17.2703 7.9696C16.4998 6.91375 15.7008 5.95493 14.896 5.11595C16.7566 3.38664 18.5031 2.43923 19.6902 2.43923V1.1665C18.1207 1.1665 16.066 2.28513 13.9886 4.22562C11.9111 2.29655 9.8565 1.18933 8.287 1.18933V2.46206C9.46841 2.46206 11.2205 3.40376 13.0811 5.12166C12.2821 5.96063 11.4831 6.91375 10.724 7.9696C9.43416 8.10658 8.2128 8.31775 7.09417 8.59741C6.9629 8.02668 6.86588 7.47307 6.79739 6.94229C6.52915 4.7621 6.86017 3.06703 7.63066 2.61616C7.80188 2.51343 8.02446 2.46777 8.287 2.46777V1.19504C7.80758 1.19504 7.37383 1.29777 6.99715 1.51465C5.3934 2.43923 5.03384 5.32142 5.86139 8.93984C2.31146 10.0356 0 11.7878 0 13.6369C0 15.4918 2.32287 17.2497 5.88422 18.3398C5.06237 21.9696 5.42764 24.8575 7.0371 25.7821C7.40807 25.999 7.84183 26.1017 8.32124 26.1017C9.89075 26.1017 11.9454 24.9831 14.0228 23.0426C16.1003 24.9716 18.1549 26.0789 19.7244 26.0789C20.2038 26.0789 20.6376 25.9761 21.0143 25.7593C22.618 24.8347 22.9776 21.9525 22.15 18.3341C25.6885 17.244 28 15.4861 28 13.6369ZM20.5691 9.83018C20.3579 10.5664 20.0954 11.3255 19.7986 12.0846C19.5646 11.628 19.3192 11.1714 19.051 10.7148C18.7884 10.2582 18.5088 9.81306 18.2291 9.3793C19.0395 9.49916 19.8214 9.64755 20.5691 9.83018ZM17.9552 15.9085C17.51 16.6789 17.0534 17.4095 16.5797 18.0886C15.7293 18.1628 14.8675 18.2028 14 18.2028C13.1382 18.2028 12.2764 18.1628 11.4317 18.0943C10.958 17.4152 10.4957 16.6904 10.0506 15.9256C9.6168 15.1779 9.22299 14.4188 8.86343 13.6541C9.21729 12.8893 9.6168 12.1245 10.0448 11.3769C10.49 10.6064 10.9466 9.87584 11.4203 9.19667C12.2707 9.12248 13.1325 9.08253 14 9.08253C14.8618 9.08253 15.7236 9.12248 16.5683 9.19096C17.042 9.87013 17.5043 10.595 17.9495 11.3597C18.3832 12.1074 18.777 12.8665 19.1366 13.6312C18.777 14.396 18.3832 15.1608 17.9552 15.9085ZM19.7986 15.1665C20.1068 15.9313 20.3693 16.6961 20.5862 17.438C19.8386 17.6206 19.051 17.7747 18.2348 17.8946C18.5145 17.4551 18.7941 17.0043 19.0567 16.542C19.3192 16.0854 19.5646 15.6231 19.7986 15.1665ZM14.0114 21.2562C13.4806 20.7083 12.9499 20.0976 12.4248 19.4299C12.9384 19.4527 13.4635 19.4698 13.9943 19.4698C14.5308 19.4698 15.0616 19.4584 15.5809 19.4299C15.0673 20.0976 14.5365 20.7083 14.0114 21.2562ZM9.76519 17.8946C8.95475 17.7747 8.17285 17.6264 7.42519 17.4437C7.63636 16.7075 7.8989 15.9484 8.19568 15.1893C8.42968 15.6459 8.67509 16.1025 8.94333 16.5591C9.21158 17.0157 9.48553 17.4608 9.76519 17.8946ZM13.9829 6.01771C14.5137 6.56561 15.0444 7.17629 15.5695 7.84404C15.0559 7.82121 14.5308 7.80409 14 7.80409C13.4635 7.80409 12.9327 7.81551 12.4134 7.84404C12.927 7.17629 13.4578 6.56561 13.9829 6.01771ZM9.75948 9.3793C9.47982 9.81877 9.20016 10.2696 8.93763 10.7319C8.67509 11.1885 8.42968 11.6451 8.19568 12.1017C7.88748 11.3369 7.62495 10.5721 7.40807 9.83018C8.15573 9.65326 8.94334 9.49916 9.75948 9.3793ZM4.59438 16.5248C2.57399 15.663 1.26702 14.533 1.26702 13.6369C1.26702 12.7409 2.57399 11.6052 4.59438 10.7491C5.0852 10.5379 5.62169 10.3495 6.1753 10.1726C6.50061 11.2913 6.92866 12.4555 7.45944 13.6484C6.93437 14.8355 6.51203 15.9941 6.19242 17.107C5.6274 16.9301 5.09091 16.736 4.59438 16.5248ZM7.6649 24.6806C6.88871 24.2354 6.55198 22.5403 6.81451 20.3601C6.87729 19.8237 6.98003 19.2586 7.10559 18.6822C8.22422 18.9562 9.44558 19.1673 10.7297 19.3043C11.5002 20.3601 12.2992 21.319 13.104 22.1579C11.2434 23.8873 9.49694 24.8347 8.30982 24.8347C8.053 24.829 7.83612 24.7776 7.6649 24.6806ZM21.2026 20.3316C21.4709 22.5118 21.1398 24.2069 20.3693 24.6577C20.1981 24.7605 19.9755 24.8061 19.713 24.8061C18.5316 24.8061 16.7795 23.8644 14.9189 22.1465C15.7179 21.3076 16.5169 20.3544 17.276 19.2986C18.5658 19.1616 19.7872 18.9504 20.9058 18.6708C21.0371 19.2472 21.1398 19.8008 21.2026 20.3316ZM23.3999 16.5248C22.9091 16.736 22.3726 16.9244 21.819 17.1013C21.4937 15.9826 21.0656 14.8184 20.5349 13.6255C21.0599 12.4384 21.4823 11.2798 21.8019 10.1669C22.3669 10.3438 22.9034 10.5379 23.4056 10.7491C25.426 11.6109 26.733 12.7409 26.733 13.6369C26.7273 14.533 25.4203 15.6687 23.3999 16.5248Z" fill="#61DAFB"/>
<path d="M13.9943 16.2453C15.4347 16.2453 16.6025 15.0775 16.6025 13.637C16.6025 12.1966 15.4347 11.0288 13.9943 11.0288C12.5538 11.0288 11.386 12.1966 11.386 13.637C11.386 15.0775 12.5538 16.2453 13.9943 16.2453Z" fill="#61DAFB"/>
</svg>
