<svg width="22" height="22" viewBox="0 0 19 19" fill="none" xmlns="http://www.w3.org/2000/svg">
<path d="M11.475 4.77508C11.307 4.94644 11.213 5.17681 11.213 5.41675C11.213 5.65669 11.307 5.88707 11.475 6.05842L12.9417 7.52508C13.113 7.69304 13.3434 7.78712 13.5833 7.78712C13.8233 7.78712 14.0536 7.69304 14.225 7.52508L17.6808 4.06925C18.1418 5.08784 18.2813 6.22271 18.0809 7.32263C17.8805 8.42255 17.3496 9.43527 16.5591 10.2258C15.7685 11.0164 14.7558 11.5473 13.6559 11.7477C12.556 11.9481 11.4211 11.8085 10.4025 11.3476L4.06832 17.6817C3.70365 18.0464 3.20905 18.2513 2.69332 18.2513C2.1776 18.2513 1.683 18.0464 1.31832 17.6817C0.95365 17.3171 0.748779 16.8225 0.748779 16.3067C0.748779 15.791 0.95365 15.2964 1.31832 14.9317L7.65249 8.59758C7.19156 7.57899 7.052 6.44412 7.2524 5.3442C7.45281 4.24428 7.98367 3.23156 8.77423 2.44099C9.5648 1.65043 10.5775 1.11957 11.6774 0.919164C12.7774 0.718756 13.9122 0.858318 14.9308 1.31925L11.4842 4.76592L11.475 4.77508Z" stroke="black" stroke-linecap="round" stroke-linejoin="round"/>
</svg>
